# xmcd
#
# Track frame offsets:
#	150
#	19343
#	31180
#	52379
#	67365
#	93078
#	110056
#	132788
#	152497
#	169071
#	188027
#
# Disc length: 2669 seconds
#
# Revision: 0
# Processed by: cddbd v1.4PL0 Copyright (c) Steve Scherf et al.
# Submitted via: dBpowerAMP V4.0
#
DISCID=960a6b0b
DTITLE=Antoni Filipkowski - Nie dajmy sie podzielic
DYEAR=2000
DGENRE=Ballad
TTITLE0=Ida pancry na Wujek
TTITLE1=Grudzien `81
TTITLE2=Siedem polskich grzechow glownych
TTITLE3=W noc grudniowa
TTITLE4=Ballada partyzancka
TTITLE5=Musimy wygrac
TTITLE6=Stanmy
TTITLE7=Ballada stoczniowa
TTITLE8=Boze nasz
TTITLE9=Chrystus z robotnikami - robotnicy z Chrystusem
TTITLE10=Nie dajmy sie podzielic
EXTD=
EXTT0=
EXTT1=
EXTT2=
EXTT3=
EXTT4=
EXTT5=
EXTT6=
EXTT7=
EXTT8=
EXTT9=
EXTT10=
PLAYORDER=
